# xmcd CD database file
#
# Track frame offsets:
#	150
#	18467
#	30110
#
# Disc length: 574 seconds
#
# Revision: 0
# Processed by: cddbd v1.5.1PL0 Copyright (c) Steve Scherf et al.
# Submitted via: CDex 1.51
#
DISCID=13023c03
DTITLE=Bjørn Berge - Bjørn Berge
DYEAR=1998
DGENRE=Blues
TTITLE0=Blues Hit Me
TTITLE1=Beautiful day
TTITLE2=I Believe
EXTD=YEAR: 1998
EXTT0=
EXTT1=
EXTT2=
PLAYORDER=
